<svg width="502" height="111" viewBox="0 0 502 111" fill="none" xmlns="http://www.w3.org/2000/svg">
<path d="M471.089 85.2V42.6H462.089V27.6H471.089V21.6C471.089 7.8 478.889 0 490.889 0C496.889 0 501.689 1.8 501.689 1.8V16.8C501.689 16.8 498.689 15.6 495.089 15.6C490.289 15.6 487.289 18.6 487.289 24V27.6H500.489V42.6H487.289V85.2H471.089Z" fill="white"/>
<path d="M426.708 86.4002C409.308 86.4002 395.508 72.6002 395.508 55.8002C395.508 39.0002 409.308 25.2002 426.708 25.2002C444.108 25.2002 457.908 39.0002 457.908 55.8002C457.908 72.6002 444.108 86.4002 426.708 86.4002ZM426.708 71.4002C435.108 71.4002 441.708 64.8002 441.708 55.8002C441.708 46.8002 435.108 40.2002 426.708 40.2002C418.308 40.2002 411.708 46.8002 411.708 55.8002C411.708 64.8002 418.308 71.4002 426.708 71.4002Z" fill="white"/>
<path d="M358.327 86.4002C340.927 86.4002 327.127 72.6002 327.127 55.8002C327.127 39.0002 340.927 25.2002 358.327 25.2002C375.727 25.2002 389.527 39.0002 389.527 55.8002C389.527 72.6002 375.727 86.4002 358.327 86.4002ZM358.327 71.4002C366.727 71.4002 373.327 64.8002 373.327 55.8002C373.327 46.8002 366.727 40.2002 358.327 40.2002C349.927 40.2002 343.327 46.8002 343.327 55.8002C343.327 64.8002 349.927 71.4002 358.327 71.4002Z" fill="white"/>
<path d="M288.713 85.2002V26.4002H304.913V34.8002H305.513C305.513 34.8002 311.513 25.2002 322.913 25.2002H324.113V42.6002C324.113 42.6002 322.313 42.0002 318.713 42.0002C310.913 42.0002 304.913 48.0002 304.913 57.6002V85.2002H288.713Z" fill="white"/>
<path d="M217.284 110.4V26.4002H233.484V34.8002H234.084C234.084 34.8002 240.084 25.2002 252.684 25.2002C266.484 25.2002 279.084 37.8002 279.084 55.8002C279.084 73.8002 266.484 86.4002 252.684 86.4002C240.084 86.4002 234.084 76.8002 234.084 76.8002H233.484V110.4H217.284ZM247.884 71.4002C256.284 71.4002 262.884 64.8002 262.884 55.8002C262.884 46.8002 256.284 40.2002 247.884 40.2002C239.484 40.2002 232.884 46.8002 232.884 55.8002C232.884 64.8002 239.484 71.4002 247.884 71.4002Z" fill="white"/>
<path d="M187.238 85.2002V1.2002H203.438V85.2002H187.238Z" fill="white"/>
<path d="M145.856 86.4002C128.456 86.4002 114.656 72.6002 114.656 55.8002C114.656 39.0002 128.456 25.2002 145.856 25.2002C163.256 25.2002 177.056 39.0002 177.056 55.8002C177.056 72.6002 163.256 86.4002 145.856 86.4002ZM145.856 71.4002C154.256 71.4002 160.856 64.8002 160.856 55.8002C160.856 46.8002 154.256 40.2002 145.856 40.2002C137.456 40.2002 130.856 46.8002 130.856 55.8002C130.856 64.8002 137.456 71.4002 145.856 71.4002Z" fill="white"/>
<path d="M77.475 86.4002C60.075 86.4002 46.275 72.6002 46.275 55.8002C46.275 39.0002 60.075 25.2002 77.475 25.2002C94.875 25.2002 108.675 39.0002 108.675 55.8002C108.675 72.6002 94.875 86.4002 77.475 86.4002ZM77.475 71.4002C85.875 71.4002 92.475 64.8002 92.475 55.8002C92.475 46.8002 85.875 40.2002 77.475 40.2002C69.075 40.2002 62.475 46.8002 62.475 55.8002C62.475 64.8002 69.075 71.4002 77.475 71.4002Z" fill="white"/>
<path d="M30 86.3996C18 86.3996 10.2 78.5996 10.2 64.7996V42.5996H0V27.5996H5.4C9.6 27.5996 12 25.1996 12 20.3996V9.59961H26.4V27.5996H39.6V42.5996H26.4V62.3996C26.4 67.7996 29.4 70.7996 34.2 70.7996C37.8 70.7996 40.8 69.5996 40.8 69.5996V84.5996C40.8 84.5996 36 86.3996 30 86.3996Z" fill="white"/>
</svg>
