<?xml version="1.0" standalone="no"?>
<!DOCTYPE svg PUBLIC "-//W3C//DTD SVG 20010904//EN"
 "http://www.w3.org/TR/2001/REC-SVG-20010904/DTD/svg10.dtd">
<svg version="1.0" xmlns="http://www.w3.org/2000/svg"
 width="700.000000pt" height="700.000000pt" viewBox="0 0 700.000000 700.000000"
 preserveAspectRatio="xMidYMid meet">
<metadata>
Created by potrace 1.14, written by Peter Selinger 2001-2017
</metadata>
<g transform="translate(0.000000,700.000000) scale(0.100000,-0.100000)"
fill="#000000" stroke="none">
<path d="M3148 4873 c-5 -326 -9 -352 -79 -422 -58 -58 -108 -71 -291 -78
l-158 -6 0 -323 0 -324 224 0 225 0 4 -577 c3 -539 5 -584 24 -668 71 -310
235 -514 492 -612 212 -80 482 -80 769 3 l52 15 0 328 0 329 -62 -21 c-51 -17
-90 -21 -203 -21 -133 -1 -142 0 -190 26 -88 47 -141 120 -164 226 -7 35 -11
211 -11 512 l0 460 290 0 290 0 0 325 0 325 -290 0 -290 0 0 395 0 395 -314 0
-315 0 -3 -287z"/>
</g>
</svg>
